<mxfile host="app.diagrams.net" modified="2024-01-03T21:42:38.059Z" agent="Mozilla/5.0 (Windows NT 10.0; Win64; x64) AppleWebKit/537.36 (KHTML, like Gecko) Chrome/120.0.0.0 Safari/537.36" etag="PxUKptH6cJOhrEitO_ME" version="22.1.16" type="device">
  <diagram name="Page-1" id="Asxs5gvFUpT80PBr_EKh">
    <mxGraphModel dx="1750" dy="883" grid="1" gridSize="10" guides="1" tooltips="1" connect="1" arrows="1" fold="1" page="1" pageScale="1" pageWidth="827" pageHeight="1169" math="0" shadow="0">
      <root>
        <mxCell id="0" />
        <mxCell id="1" parent="0" />
        <mxCell id="7F_aPbGPG1b8ql_IWIyc-1" value="&lt;h2&gt;&lt;font style=&quot;font-size: 18px;&quot;&gt;START&lt;/font&gt;&lt;/h2&gt;" style="ellipse;whiteSpace=wrap;html=1;fillColor=#d5e8d4;strokeColor=#82b366;" vertex="1" parent="1">
          <mxGeometry x="320" y="20" width="120" height="80" as="geometry" />
        </mxCell>
        <mxCell id="7F_aPbGPG1b8ql_IWIyc-7" style="edgeStyle=orthogonalEdgeStyle;rounded=0;orthogonalLoop=1;jettySize=auto;html=1;exitX=0.5;exitY=1;exitDx=0;exitDy=0;entryX=0.5;entryY=0;entryDx=0;entryDy=0;" edge="1" parent="1" source="7F_aPbGPG1b8ql_IWIyc-2" target="7F_aPbGPG1b8ql_IWIyc-6">
          <mxGeometry relative="1" as="geometry" />
        </mxCell>
        <mxCell id="7F_aPbGPG1b8ql_IWIyc-2" value="&lt;h3&gt;&lt;font style=&quot;font-size: 12px;&quot; face=&quot;Comic Sans MS&quot;&gt;Get the player&#39;s name and class.&lt;/font&gt;&lt;/h3&gt;" style="shape=parallelogram;perimeter=parallelogramPerimeter;whiteSpace=wrap;html=1;fixedSize=1;fillColor=#f5f5f5;fontColor=#333333;strokeColor=#666666;" vertex="1" parent="1">
          <mxGeometry x="260" y="160" width="240" height="80" as="geometry" />
        </mxCell>
        <mxCell id="7F_aPbGPG1b8ql_IWIyc-3" value="" style="endArrow=classic;html=1;rounded=0;" edge="1" parent="1">
          <mxGeometry width="50" height="50" relative="1" as="geometry">
            <mxPoint x="380" y="100" as="sourcePoint" />
            <mxPoint x="380" y="160" as="targetPoint" />
            <Array as="points">
              <mxPoint x="380" y="100" />
            </Array>
          </mxGeometry>
        </mxCell>
        <mxCell id="7F_aPbGPG1b8ql_IWIyc-49" style="edgeStyle=orthogonalEdgeStyle;rounded=0;orthogonalLoop=1;jettySize=auto;html=1;exitX=0;exitY=0.5;exitDx=0;exitDy=0;entryX=0;entryY=0.5;entryDx=0;entryDy=0;" edge="1" parent="1" source="7F_aPbGPG1b8ql_IWIyc-6" target="7F_aPbGPG1b8ql_IWIyc-2">
          <mxGeometry relative="1" as="geometry">
            <mxPoint x="150" y="200" as="targetPoint" />
            <Array as="points">
              <mxPoint x="160" y="365" />
              <mxPoint x="160" y="200" />
            </Array>
          </mxGeometry>
        </mxCell>
        <mxCell id="7F_aPbGPG1b8ql_IWIyc-6" value="&lt;font face=&quot;Georgia&quot;&gt;Check if the player&#39;s class&lt;br&gt;&amp;nbsp;input is valid (between 1 and 4).&lt;/font&gt;" style="rhombus;whiteSpace=wrap;html=1;fillColor=#dae8fc;strokeColor=#6c8ebf;" vertex="1" parent="1">
          <mxGeometry x="250" y="300" width="260" height="130" as="geometry" />
        </mxCell>
        <mxCell id="7F_aPbGPG1b8ql_IWIyc-11" style="edgeStyle=orthogonalEdgeStyle;rounded=0;orthogonalLoop=1;jettySize=auto;html=1;exitX=0.5;exitY=1;exitDx=0;exitDy=0;entryX=0.5;entryY=0;entryDx=0;entryDy=0;" edge="1" parent="1" source="7F_aPbGPG1b8ql_IWIyc-8" target="7F_aPbGPG1b8ql_IWIyc-10">
          <mxGeometry relative="1" as="geometry" />
        </mxCell>
        <mxCell id="7F_aPbGPG1b8ql_IWIyc-8" value="&lt;font face=&quot;Georgia&quot; style=&quot;font-size: 14px;&quot;&gt;Set initial values for player attributes&lt;/font&gt;." style="rounded=0;whiteSpace=wrap;html=1;fillColor=#fff2cc;strokeColor=#d6b656;" vertex="1" parent="1">
          <mxGeometry x="270" y="460" width="240" height="100" as="geometry" />
        </mxCell>
        <mxCell id="7F_aPbGPG1b8ql_IWIyc-55" style="edgeStyle=orthogonalEdgeStyle;rounded=0;orthogonalLoop=1;jettySize=auto;html=1;exitX=0.5;exitY=1;exitDx=0;exitDy=0;entryX=0.5;entryY=0;entryDx=0;entryDy=0;" edge="1" parent="1" source="7F_aPbGPG1b8ql_IWIyc-10" target="7F_aPbGPG1b8ql_IWIyc-54">
          <mxGeometry relative="1" as="geometry" />
        </mxCell>
        <mxCell id="7F_aPbGPG1b8ql_IWIyc-10" value="&lt;font face=&quot;Georgia&quot;&gt;&lt;br&gt;&lt;span style=&quot;color: rgb(55, 65, 81); font-size: 16px; font-style: normal; font-variant-ligatures: normal; font-variant-caps: normal; font-weight: 400; letter-spacing: normal; orphans: 2; text-align: left; text-indent: 0px; text-transform: none; widows: 2; word-spacing: 0px; -webkit-text-stroke-width: 0px; text-decoration-thickness: initial; text-decoration-style: initial; text-decoration-color: initial; float: none; display: inline !important;&quot;&gt; Display the player&#39;s information.&lt;/span&gt;&lt;br&gt;&lt;/font&gt;" style="rounded=0;whiteSpace=wrap;html=1;fillColor=#fff2cc;strokeColor=#d6b656;" vertex="1" parent="1">
          <mxGeometry x="270" y="620" width="240" height="100" as="geometry" />
        </mxCell>
        <mxCell id="7F_aPbGPG1b8ql_IWIyc-20" style="edgeStyle=orthogonalEdgeStyle;rounded=0;orthogonalLoop=1;jettySize=auto;html=1;exitX=0.5;exitY=1;exitDx=0;exitDy=0;entryX=0.5;entryY=0;entryDx=0;entryDy=0;" edge="1" parent="1" source="7F_aPbGPG1b8ql_IWIyc-12" target="7F_aPbGPG1b8ql_IWIyc-15">
          <mxGeometry relative="1" as="geometry" />
        </mxCell>
        <mxCell id="7F_aPbGPG1b8ql_IWIyc-12" value="&lt;font face=&quot;Georgia&quot;&gt;&lt;br&gt;&lt;span style=&quot;color: rgb(55, 65, 81); font-size: 16px; font-style: normal; font-variant-ligatures: normal; font-variant-caps: normal; font-weight: 400; letter-spacing: normal; orphans: 2; text-align: left; text-indent: 0px; text-transform: none; widows: 2; word-spacing: 0px; -webkit-text-stroke-width: 0px; text-decoration-thickness: initial; text-decoration-style: initial; text-decoration-color: initial; float: none; display: inline !important;&quot;&gt;Get the player&#39;s mission choice.&lt;/span&gt;&lt;br&gt;&lt;/font&gt;" style="shape=parallelogram;perimeter=parallelogramPerimeter;whiteSpace=wrap;html=1;fixedSize=1;fillColor=#f5f5f5;fontColor=#333333;strokeColor=#666666;" vertex="1" parent="1">
          <mxGeometry x="260" y="880" width="250" height="90" as="geometry" />
        </mxCell>
        <mxCell id="7F_aPbGPG1b8ql_IWIyc-24" style="edgeStyle=orthogonalEdgeStyle;rounded=0;orthogonalLoop=1;jettySize=auto;html=1;exitX=0.5;exitY=1;exitDx=0;exitDy=0;entryX=0.5;entryY=0;entryDx=0;entryDy=0;" edge="1" parent="1" source="7F_aPbGPG1b8ql_IWIyc-15" target="7F_aPbGPG1b8ql_IWIyc-23">
          <mxGeometry relative="1" as="geometry" />
        </mxCell>
        <mxCell id="7F_aPbGPG1b8ql_IWIyc-15" value="&lt;font face=&quot;Georgia&quot;&gt;&lt;br&gt;&lt;span style=&quot;color: rgb(55, 65, 81); font-size: 16px; font-style: normal; font-variant-ligatures: normal; font-variant-caps: normal; font-weight: 400; letter-spacing: normal; orphans: 2; text-align: left; text-indent: 0px; text-transform: none; widows: 2; word-spacing: 0px; -webkit-text-stroke-width: 0px; text-decoration-thickness: initial; text-decoration-style: initial; text-decoration-color: initial; float: none; display: inline !important;&quot;&gt;Display the storyline for the selected mission.&lt;/span&gt;&lt;br&gt;&lt;/font&gt;" style="rounded=0;whiteSpace=wrap;html=1;fillColor=#fff2cc;strokeColor=#d6b656;" vertex="1" parent="1">
          <mxGeometry x="270" y="1010" width="230" height="90" as="geometry" />
        </mxCell>
        <mxCell id="7F_aPbGPG1b8ql_IWIyc-26" style="edgeStyle=orthogonalEdgeStyle;rounded=0;orthogonalLoop=1;jettySize=auto;html=1;exitX=0.5;exitY=1;exitDx=0;exitDy=0;" edge="1" parent="1" source="7F_aPbGPG1b8ql_IWIyc-23" target="7F_aPbGPG1b8ql_IWIyc-25">
          <mxGeometry relative="1" as="geometry" />
        </mxCell>
        <mxCell id="7F_aPbGPG1b8ql_IWIyc-23" value="&lt;font face=&quot;Georgia&quot;&gt;&lt;br&gt;&lt;span style=&quot;color: rgb(55, 65, 81); font-size: 16px; font-style: normal; font-variant-ligatures: normal; font-variant-caps: normal; font-weight: 400; letter-spacing: normal; orphans: 2; text-align: left; text-indent: 0px; text-transform: none; widows: 2; word-spacing: 0px; -webkit-text-stroke-width: 0px; text-decoration-thickness: initial; text-decoration-style: initial; text-decoration-color: initial; float: none; display: inline !important;&quot;&gt;Simulate the battle between the player and the mythical creature.&lt;/span&gt;&lt;br&gt;&lt;/font&gt;" style="rounded=0;whiteSpace=wrap;html=1;fillColor=#fff2cc;strokeColor=#d6b656;" vertex="1" parent="1">
          <mxGeometry x="270" y="1130" width="240" height="100" as="geometry" />
        </mxCell>
        <mxCell id="7F_aPbGPG1b8ql_IWIyc-29" style="edgeStyle=orthogonalEdgeStyle;rounded=0;orthogonalLoop=1;jettySize=auto;html=1;exitX=0.5;exitY=1;exitDx=0;exitDy=0;entryX=0.5;entryY=0;entryDx=0;entryDy=0;" edge="1" parent="1" source="7F_aPbGPG1b8ql_IWIyc-25" target="7F_aPbGPG1b8ql_IWIyc-27">
          <mxGeometry relative="1" as="geometry" />
        </mxCell>
        <mxCell id="7F_aPbGPG1b8ql_IWIyc-57" style="edgeStyle=orthogonalEdgeStyle;rounded=0;orthogonalLoop=1;jettySize=auto;html=1;exitX=1;exitY=0.5;exitDx=0;exitDy=0;entryX=1;entryY=0.5;entryDx=0;entryDy=0;" edge="1" parent="1" source="7F_aPbGPG1b8ql_IWIyc-25" target="7F_aPbGPG1b8ql_IWIyc-27">
          <mxGeometry relative="1" as="geometry">
            <Array as="points">
              <mxPoint x="630" y="1390" />
              <mxPoint x="630" y="1565" />
            </Array>
          </mxGeometry>
        </mxCell>
        <mxCell id="7F_aPbGPG1b8ql_IWIyc-59" style="edgeStyle=orthogonalEdgeStyle;rounded=0;orthogonalLoop=1;jettySize=auto;html=1;exitX=0;exitY=0.5;exitDx=0;exitDy=0;entryX=0;entryY=0.5;entryDx=0;entryDy=0;" edge="1" parent="1" source="7F_aPbGPG1b8ql_IWIyc-25" target="7F_aPbGPG1b8ql_IWIyc-64">
          <mxGeometry relative="1" as="geometry">
            <mxPoint x="300" y="1770" as="targetPoint" />
            <Array as="points">
              <mxPoint x="110" y="1390" />
              <mxPoint x="110" y="1710" />
            </Array>
          </mxGeometry>
        </mxCell>
        <mxCell id="7F_aPbGPG1b8ql_IWIyc-25" value="&lt;font face=&quot;Georgia&quot;&gt;&lt;br&gt;&lt;span style=&quot;color: rgb(55, 65, 81); font-size: 16px; font-style: normal; font-variant-ligatures: normal; font-variant-caps: normal; font-weight: 400; letter-spacing: normal; orphans: 2; text-align: left; text-indent: 0px; text-transform: none; widows: 2; word-spacing: 0px; -webkit-text-stroke-width: 0px; text-decoration-thickness: initial; text-decoration-style: initial; text-decoration-color: initial; float: none; display: inline !important;&quot;&gt;Check if the player has enough&lt;br&gt;&amp;nbsp;experience to level up.&lt;/span&gt;&lt;br&gt;&lt;/font&gt;" style="rhombus;whiteSpace=wrap;html=1;fillColor=#dae8fc;strokeColor=#6c8ebf;" vertex="1" parent="1">
          <mxGeometry x="240" y="1310" width="300" height="160" as="geometry" />
        </mxCell>
        <mxCell id="7F_aPbGPG1b8ql_IWIyc-68" style="edgeStyle=orthogonalEdgeStyle;rounded=0;orthogonalLoop=1;jettySize=auto;html=1;exitX=0.5;exitY=1;exitDx=0;exitDy=0;entryX=0.5;entryY=0;entryDx=0;entryDy=0;" edge="1" parent="1" source="7F_aPbGPG1b8ql_IWIyc-27" target="7F_aPbGPG1b8ql_IWIyc-64">
          <mxGeometry relative="1" as="geometry" />
        </mxCell>
        <mxCell id="7F_aPbGPG1b8ql_IWIyc-27" value="&lt;font face=&quot;Georgia&quot;&gt;&lt;br&gt;&lt;span style=&quot;color: rgb(55, 65, 81); font-size: 16px; font-style: normal; font-variant-ligatures: normal; font-variant-caps: normal; font-weight: 400; letter-spacing: normal; orphans: 2; text-align: left; text-indent: 0px; text-transform: none; widows: 2; word-spacing: 0px; -webkit-text-stroke-width: 0px; text-decoration-thickness: initial; text-decoration-style: initial; text-decoration-color: initial; float: none; display: inline !important;&quot;&gt;If the player has enough experience, level up and increase health &amp;amp; reset exp to 0.&lt;/span&gt;&lt;br&gt;&lt;/font&gt;" style="rounded=0;whiteSpace=wrap;html=1;fillColor=#fff2cc;strokeColor=#d6b656;" vertex="1" parent="1">
          <mxGeometry x="270" y="1520" width="240" height="90" as="geometry" />
        </mxCell>
        <mxCell id="7F_aPbGPG1b8ql_IWIyc-33" style="edgeStyle=orthogonalEdgeStyle;rounded=0;orthogonalLoop=1;jettySize=auto;html=1;exitX=0.5;exitY=1;exitDx=0;exitDy=0;entryX=0.5;entryY=0;entryDx=0;entryDy=0;" edge="1" parent="1" source="7F_aPbGPG1b8ql_IWIyc-30" target="7F_aPbGPG1b8ql_IWIyc-32">
          <mxGeometry relative="1" as="geometry" />
        </mxCell>
        <mxCell id="7F_aPbGPG1b8ql_IWIyc-30" value="&lt;font style=&quot;font-size: 14px;&quot; face=&quot;Georgia&quot;&gt;Ask the player if they want to &lt;br&gt;continue playing.&lt;/font&gt;" style="rhombus;whiteSpace=wrap;html=1;fillColor=#dae8fc;strokeColor=#6c8ebf;" vertex="1" parent="1">
          <mxGeometry x="270" y="1960" width="260" height="160" as="geometry" />
        </mxCell>
        <mxCell id="7F_aPbGPG1b8ql_IWIyc-32" value="&lt;h2&gt;&lt;font face=&quot;Georgia&quot;&gt;END&lt;/font&gt;&lt;/h2&gt;" style="ellipse;whiteSpace=wrap;html=1;fillColor=#f8cecc;strokeColor=#b85450;" vertex="1" parent="1">
          <mxGeometry x="340" y="2230" width="120" height="80" as="geometry" />
        </mxCell>
        <mxCell id="7F_aPbGPG1b8ql_IWIyc-46" value="" style="endArrow=none;html=1;rounded=0;exitX=1;exitY=0.5;exitDx=0;exitDy=0;" edge="1" parent="1" source="7F_aPbGPG1b8ql_IWIyc-6">
          <mxGeometry width="50" height="50" relative="1" as="geometry">
            <mxPoint x="360" y="380" as="sourcePoint" />
            <mxPoint x="710" y="370" as="targetPoint" />
          </mxGeometry>
        </mxCell>
        <mxCell id="7F_aPbGPG1b8ql_IWIyc-47" value="" style="endArrow=classic;html=1;rounded=0;entryX=1;entryY=0.5;entryDx=0;entryDy=0;" edge="1" parent="1" target="7F_aPbGPG1b8ql_IWIyc-8">
          <mxGeometry width="50" height="50" relative="1" as="geometry">
            <mxPoint x="710" y="510" as="sourcePoint" />
            <mxPoint x="530" y="550" as="targetPoint" />
          </mxGeometry>
        </mxCell>
        <mxCell id="7F_aPbGPG1b8ql_IWIyc-48" value="" style="endArrow=none;html=1;rounded=0;" edge="1" parent="1">
          <mxGeometry width="50" height="50" relative="1" as="geometry">
            <mxPoint x="710" y="370" as="sourcePoint" />
            <mxPoint x="710" y="510" as="targetPoint" />
          </mxGeometry>
        </mxCell>
        <mxCell id="7F_aPbGPG1b8ql_IWIyc-50" value="&lt;h2&gt;&lt;font face=&quot;Georgia&quot;&gt;NO&lt;/font&gt;&lt;/h2&gt;" style="text;html=1;align=center;verticalAlign=middle;resizable=0;points=[];autosize=1;strokeColor=none;fillColor=none;" vertex="1" parent="1">
          <mxGeometry x="175" y="315" width="50" height="60" as="geometry" />
        </mxCell>
        <mxCell id="7F_aPbGPG1b8ql_IWIyc-53" value="&lt;h2&gt;&lt;font face=&quot;Georgia&quot;&gt;YES&lt;/font&gt;&lt;/h2&gt;" style="text;html=1;align=center;verticalAlign=middle;resizable=0;points=[];autosize=1;strokeColor=none;fillColor=none;" vertex="1" parent="1">
          <mxGeometry x="575" y="315" width="60" height="60" as="geometry" />
        </mxCell>
        <mxCell id="7F_aPbGPG1b8ql_IWIyc-54" value="&lt;font face=&quot;Georgia&quot;&gt;&lt;br&gt;&lt;span style=&quot;color: rgb(55, 65, 81); font-size: 16px; font-style: normal; font-variant-ligatures: normal; font-variant-caps: normal; font-weight: 400; letter-spacing: normal; orphans: 2; text-align: left; text-indent: 0px; text-transform: none; widows: 2; word-spacing: 0px; -webkit-text-stroke-width: 0px; text-decoration-thickness: initial; text-decoration-style: initial; text-decoration-color: initial; float: none; display: inline !important;&quot;&gt;Display the available missions.&lt;/span&gt;&lt;br&gt;&lt;/font&gt;" style="rounded=0;whiteSpace=wrap;html=1;fillColor=#fff2cc;strokeColor=#d6b656;" vertex="1" parent="1">
          <mxGeometry x="270" y="760" width="240" height="80" as="geometry" />
        </mxCell>
        <mxCell id="7F_aPbGPG1b8ql_IWIyc-56" style="edgeStyle=orthogonalEdgeStyle;rounded=0;orthogonalLoop=1;jettySize=auto;html=1;exitX=0.5;exitY=1;exitDx=0;exitDy=0;entryX=0.537;entryY=-0.021;entryDx=0;entryDy=0;entryPerimeter=0;" edge="1" parent="1" source="7F_aPbGPG1b8ql_IWIyc-54" target="7F_aPbGPG1b8ql_IWIyc-12">
          <mxGeometry relative="1" as="geometry" />
        </mxCell>
        <mxCell id="7F_aPbGPG1b8ql_IWIyc-58" value="&lt;h2&gt;&lt;font face=&quot;Georgia&quot;&gt;YES&lt;/font&gt;&lt;/h2&gt;" style="text;html=1;align=center;verticalAlign=middle;resizable=0;points=[];autosize=1;strokeColor=none;fillColor=none;" vertex="1" parent="1">
          <mxGeometry x="550" y="1343" width="60" height="60" as="geometry" />
        </mxCell>
        <mxCell id="7F_aPbGPG1b8ql_IWIyc-60" value="&lt;h2&gt;&lt;font style=&quot;font-size: 18px;&quot; face=&quot;Georgia&quot;&gt;NO&lt;/font&gt;&lt;/h2&gt;" style="text;html=1;align=center;verticalAlign=middle;resizable=0;points=[];autosize=1;strokeColor=none;fillColor=none;" vertex="1" parent="1">
          <mxGeometry x="155" y="1343" width="50" height="60" as="geometry" />
        </mxCell>
        <mxCell id="7F_aPbGPG1b8ql_IWIyc-61" value="&lt;h2&gt;&lt;font face=&quot;Georgia&quot;&gt;NO&lt;/font&gt;&lt;/h2&gt;" style="text;html=1;align=center;verticalAlign=middle;resizable=0;points=[];autosize=1;strokeColor=none;fillColor=none;" vertex="1" parent="1">
          <mxGeometry x="430" y="2150" width="50" height="60" as="geometry" />
        </mxCell>
        <mxCell id="7F_aPbGPG1b8ql_IWIyc-63" value="&lt;h2&gt;&lt;font face=&quot;Georgia&quot;&gt;YES&lt;/font&gt;&lt;/h2&gt;" style="text;html=1;align=center;verticalAlign=middle;resizable=0;points=[];autosize=1;strokeColor=none;fillColor=none;" vertex="1" parent="1">
          <mxGeometry x="120" y="1980" width="60" height="60" as="geometry" />
        </mxCell>
        <mxCell id="7F_aPbGPG1b8ql_IWIyc-71" style="edgeStyle=orthogonalEdgeStyle;rounded=0;orthogonalLoop=1;jettySize=auto;html=1;exitX=1;exitY=0.5;exitDx=0;exitDy=0;entryX=1;entryY=0.5;entryDx=0;entryDy=0;" edge="1" parent="1" source="7F_aPbGPG1b8ql_IWIyc-64" target="7F_aPbGPG1b8ql_IWIyc-30">
          <mxGeometry relative="1" as="geometry">
            <mxPoint x="670" y="1940" as="targetPoint" />
            <Array as="points">
              <mxPoint x="660" y="1710" />
              <mxPoint x="660" y="2040" />
            </Array>
          </mxGeometry>
        </mxCell>
        <mxCell id="7F_aPbGPG1b8ql_IWIyc-64" value="&lt;font face=&quot;Georgia&quot;&gt;Ask the Player if He wants to&amp;nbsp;&lt;br&gt;increase health&lt;/font&gt;" style="rhombus;whiteSpace=wrap;html=1;fillColor=#dae8fc;strokeColor=#6c8ebf;" vertex="1" parent="1">
          <mxGeometry x="285" y="1640" width="210" height="140" as="geometry" />
        </mxCell>
        <mxCell id="7F_aPbGPG1b8ql_IWIyc-66" style="edgeStyle=orthogonalEdgeStyle;rounded=0;orthogonalLoop=1;jettySize=auto;html=1;exitX=0.5;exitY=1;exitDx=0;exitDy=0;entryX=0.5;entryY=0;entryDx=0;entryDy=0;" edge="1" parent="1" source="7F_aPbGPG1b8ql_IWIyc-65" target="7F_aPbGPG1b8ql_IWIyc-30">
          <mxGeometry relative="1" as="geometry" />
        </mxCell>
        <mxCell id="7F_aPbGPG1b8ql_IWIyc-65" value="&lt;font face=&quot;Georgia&quot;&gt;Your Health is increased by Two Points ,&lt;br&gt;it cost 20 experience Points&lt;/font&gt;" style="rounded=0;whiteSpace=wrap;html=1;fillColor=#fff2cc;strokeColor=#d6b656;" vertex="1" parent="1">
          <mxGeometry x="280" y="1810" width="240" height="80" as="geometry" />
        </mxCell>
        <mxCell id="7F_aPbGPG1b8ql_IWIyc-67" style="edgeStyle=orthogonalEdgeStyle;rounded=0;orthogonalLoop=1;jettySize=auto;html=1;exitX=0.5;exitY=1;exitDx=0;exitDy=0;entryX=0.451;entryY=0.027;entryDx=0;entryDy=0;entryPerimeter=0;" edge="1" parent="1" source="7F_aPbGPG1b8ql_IWIyc-64" target="7F_aPbGPG1b8ql_IWIyc-65">
          <mxGeometry relative="1" as="geometry" />
        </mxCell>
        <mxCell id="7F_aPbGPG1b8ql_IWIyc-70" style="edgeStyle=orthogonalEdgeStyle;rounded=0;orthogonalLoop=1;jettySize=auto;html=1;exitX=0;exitY=0.5;exitDx=0;exitDy=0;entryX=-0.016;entryY=0.565;entryDx=0;entryDy=0;entryPerimeter=0;" edge="1" parent="1" source="7F_aPbGPG1b8ql_IWIyc-30" target="7F_aPbGPG1b8ql_IWIyc-10">
          <mxGeometry relative="1" as="geometry">
            <Array as="points">
              <mxPoint x="50" y="2040" />
              <mxPoint x="50" y="677" />
            </Array>
          </mxGeometry>
        </mxCell>
        <mxCell id="7F_aPbGPG1b8ql_IWIyc-72" value="&lt;h2&gt;&lt;font face=&quot;Georgia&quot;&gt;NO&lt;/font&gt;&lt;/h2&gt;" style="text;html=1;align=center;verticalAlign=middle;resizable=0;points=[];autosize=1;strokeColor=none;fillColor=none;" vertex="1" parent="1">
          <mxGeometry x="540" y="1670" width="50" height="60" as="geometry" />
        </mxCell>
        <mxCell id="7F_aPbGPG1b8ql_IWIyc-73" value="&lt;h2&gt;&lt;font face=&quot;Georgia&quot;&gt;YES&lt;/font&gt;&lt;/h2&gt;" style="text;html=1;align=center;verticalAlign=middle;resizable=0;points=[];autosize=1;strokeColor=none;fillColor=none;" vertex="1" parent="1">
          <mxGeometry x="315" y="1765" width="60" height="60" as="geometry" />
        </mxCell>
      </root>
    </mxGraphModel>
  </diagram>
</mxfile>
